<?xml version="1.0" encoding="utf-8"?>
<!-- Generator: Adobe Illustrator 17.0.1, SVG Export Plug-In . SVG Version: 6.00 Build 0)  -->
<!DOCTYPE svg PUBLIC "-//W3C//DTD SVG 1.1//EN" "http://www.w3.org/Graphics/SVG/1.1/DTD/svg11.dtd">
<svg version="1.1" id="图层_1" xmlns="http://www.w3.org/2000/svg" xmlns:xlink="http://www.w3.org/1999/xlink" x="0px" y="100px"
	 width="495.28px" height="641.89px"  xml:space="preserve">
<path fill="#2d8cf0" d="M380.959,455.915c0.312,0.59,56.474,77.697,66.098,90.867c1.739,2.38,6.001,7.35,6.12,7.637
	c0.389,0.935,1.257,2.039,0.408,2.856c-0.522,0.503-97.098,0.017-98.376,0.045c-1.624,0.036-2.83-0.544-3.776-2.023
	c-4.825-7.542-51.057-77.21-52.717-79.849c-0.825-1.311-1.879-1.783-3.384-1.773c-14.877,0.097-50.703,0.105-53.737,0.003
	c-1.947-0.065-2.583,0.482-2.592,2.5c-0.009,2.077,0.292,77.344,0.235,78.694c-0.08,1.9-0.865,2.537-2.741,2.531
	c-13.516-0.046-75.815,0.022-77.252,0.08c-2.574,0.104-3.426-0.807-3.418-3.402c0.046-15.917,0.08-176.865,0.068-179.024
	c-0.013-2.431-0.503-2.772-2.914-2.041c-0.382,0.116-16.656,3.304-18.044,3.672c-2.39,0.633-4.799,1.211-7.15,1.965
	c-2.66,0.853-5.281,1.835-7.89,2.835c-2.829,1.084-5.629,2.244-8.434,3.389c-8.195,3.345-15.657,7.989-22.712,13.252
	c-5.983,4.463-10.471,10.231-13.702,17.002c-2.205,4.62-2.691,9.436-2.356,14.448c0.63,9.407,5.805,16.212,12.648,21.987
	c4.216,3.559,8.802,6.614,13.918,8.802c1.612,0.69,3.12,1.628,4.744,2.286c4.884,1.979,9.98,3.262,15.033,4.726
	c5.085,1.474,20.257,4.535,20.304,5.179c0.072,0.976-21.839,0.33-37.486-4.975c-3.383-0.898-6.84-1.775-9.983-3.256
	c-4.175-1.966-8.215-4.304-12.065-6.857c-6.126-4.062-11.378-9.16-15.015-15.582c-4.7-8.298-6.858-17.126-4.462-26.72
	c1.887-7.555,5.374-14.272,9.723-20.671c3.952-5.814,8.56-11.008,14.033-15.344c8.151-6.458,16.582-12.564,26.016-17.071
	c6.553-3.131,13.131-6.235,19.847-8.988c5.748-2.356,11.675-4.287,17.678-5.952c2.228-0.618,4.409-1.433,6.565-2.277
	c1.65-0.646,1.932-1.268,1.878-2.929c-0.076-2.315-0.271-115.661-0.274-118.3c-0.003-2.414,0.795-3.136,3.172-3.127
	c25.915,0.099,132.945,0.207,160.543,0.353c6.299,0.033,12.596,0.798,18.889,1.288c1.266,0.099,2.516,0.452,3.763,0.732
	c2.644,0.595,5.313,1.111,7.914,1.861c2.992,0.862,5.945,1.876,8.87,2.946c2.842,1.04,5.716,2.057,8.422,3.396
	c9.476,4.686,18.473,10.088,26.553,17.027c7.08,6.08,13.431,12.799,19.097,20.156c4.293,5.575,7.82,11.668,11.115,17.901
	c3.332,6.303,6.142,12.83,8.64,19.481c1.453,3.87,2.4,7.94,3.435,11.956c3.68,14.281,4.944,28.817,4.24,43.518
	c-0.191,3.983-0.791,7.955-1.365,11.909c-0.793,5.456-1.872,10.855-3.479,16.148c-3.175,10.457-7.533,20.376-13.731,29.383
	c-5.905,8.581-12.32,16.781-20.669,23.196c-5.893,4.528-11.752,9.117-18.274,12.751
	C382.256,454.888,381.663,455.409,380.959,455.915z M233.015,350.458c0.956,1.748,2.178,1.753,3.352,1.817
	c2.713,0.148,5.429,0.242,8.14,0.414c2.462,0.156,3.26,1.052,3.168,3.509c-0.027,0.713-0.216,1.419-0.322,2.129
	c-0.357,2.401,0.188,3.619,2.247,4.79c1.528,0.869,3.074,1.714,4.659,2.473c2.272,1.088,2.741,2.278,1.237,4.215
	c-1.76,2.267-3.526,4.6-5.653,6.497c-3.894,3.471-8.378,5.554-13.833,4.303c-1.165-0.267-2.378-0.537-3.555-0.484
	c-1.323,0.06-2.721,0.276-3.919,0.805c-1.545,0.682-1.709,2.131-0.456,3.295c1.224,1.137,2.541,2.211,3.949,3.106
	c6.659,4.232,11.934,6.16,21.452,9.362s19.528,0.461,20.272,0.208c3.752-1.28,7.126-3.24,10.071-5.897
	c3.328-3.003,5.525-6.795,7.426-10.792c0.859-1.806,1.27-2.103,2.913-1.632c4.228,1.212,8.562,1.275,12.858,0.987
	c4.692-0.314,9.464-0.654,13.994-1.803c4.29-1.088,8.482-2.915,12.415-4.989c8.541-4.503,15.183-11.081,19.853-19.598
	c0.735-1.34,0.749-2.522,0.005-3.833c-3.483-6.143-8.094-11.348-13.688-15.57c-8.797-6.64-18.956-9.766-29.846-10.61
	c-5.192-0.402-10.383-0.2-15.527,0.75c-1.722,0.318-2.285,0.032-3.112-1.493c-0.495-0.913-0.923-1.861-1.395-2.787
	c-3.685-7.227-9.263-11.978-17.306-13.909c-7.777-1.867-15.313-0.699-22.674,1.572c-5.472,1.688-10.748,4.079-15.734,6.977
	c-1.925,1.119-3.854,2.29-5.566,3.698c-1.558,1.281-1.364,2.929,0.411,3.885c1.064,0.573,2.403,0.81,3.63,0.855
	c1.256,0.046,2.544-0.256,3.791-0.53c4.075-0.895,7.705,0.202,11.247,2.18c3.638,2.031,5.89,5.356,8.259,8.545
	c1.283,1.727,0.378,3.521-1.577,4.388c-1.88,0.833-3.63,1.955-5.457,2.913c-1.347,0.706-1.666,1.792-1.441,3.215
	c0.199,1.26,0.348,2.541,0.366,3.814c0.022,1.547-0.554,2.187-2.043,2.472c-0.544,0.104-1.114,0.086-1.672,0.095
	c-2.797,0.045-5.595,0.051-8.39,0.14C234.82,349.963,234.083,350.232,233.015,350.458z M333.845,263.043
	c-3.47,1.48-5.555,5.668-5.388,9.32c0.167,3.652,2.801,7.216,6.078,8.34c3.277,1.124,7.527,0.124,9.964-1.846
	c-2.165-0.161-2.259,0.374-6.036-0.484c-3.777-0.858-7.027-3.858-6.422-9.284C332.405,265.831,333.179,265.24,333.845,263.043z"/>
</svg>
